<svg xmlns="http://www.w3.org/2000/svg" shape-rendering="geometricPrecision" text-rendering="geometricPrecision" image-rendering="optimizeQuality" fill-rule="evenodd" clip-rule="evenodd" viewBox="0 0 512 301.89"><path fill-rule="nonzero" d="M7.13 301.89c-3.93 0-7.13-3.2-7.13-7.14 0-3.93 3.2-7.13 7.13-7.13h20.96c3.94 0 7.14 3.2 7.14 7.13 0 3.94-3.2 7.14-7.14 7.14H7.13zm431.97 0c-3.94 0-7.14-3.2-7.14-7.14 0-3.93 3.2-7.13 7.14-7.13h35.48c3.94 0 7.14 3.2 7.14 7.13 0 3.94-3.2 7.14-7.14 7.14H439.1zm-171.25 0c-3.93 0-7.13-3.2-7.13-7.14 0-3.93 3.2-7.13 7.13-7.13h133.2c3.93 0 7.13 3.2 7.13 7.13 0 3.94-3.2 7.14-7.13 7.14h-133.2zm-56.56 0c-3.94 0-7.14-3.2-7.14-7.14 0-3.93 3.2-7.13 7.14-7.13h35.48c3.94 0 7.14 3.2 7.14 7.13 0 3.94-3.2 7.14-7.14 7.14h-35.48zm-156.2 0c-3.94 0-7.13-3.2-7.13-7.14 0-3.93 3.19-7.13 7.13-7.13h133.06c3.94 0 7.13 3.2 7.13 7.13 0 3.94-3.19 7.14-7.13 7.14H55.09zM166.47 209.25c-1.99 1.33-4.7.8-6.04-1.2-1.34-2-.8-4.71 1.2-6.04 11.91-8.01 20.8-18.22 26.41-30.79 5.66-12.7 8.03-27.91 6.9-45.78a4.37 4.37 0 014.08-4.63 4.366 4.366 0 014.63 4.09c1.22 19.3-1.41 35.86-7.65 49.87-6.3 14.12-16.23 25.55-29.53 34.48z"/><path fill-rule="nonzero" d="M169.9 199.68l26.98 1.95c4.58.32 8.03 4.3 7.71 8.88a8.262 8.262 0 01-3.23 6l-12.7 11.22-3.01 2.95c-4.38 4.24-7.91 7.65-7.96 13.6-.01.5.02.99.09 1.47 10.51.88 18.3 6.58 22.58 13.77 2.44 4.12 3.72 8.79 3.69 13.4-.02 4.84-1.48 9.6-4.51 13.63-5.46 7.26-15.73 11.93-31.41 9.62l-19.74-1.77c-4.56-.4-7.94-4.42-7.54-8.98a8.277 8.277 0 014.39-6.62c8.96-4.73 13.1-8.47 12.97-11.33-.13-3.13-4.77-7.14-13.29-11.89-.6-.33-1.14-.73-1.62-1.18-3.18-2.94-5.5-6-7.06-9.13-2.63-5.26-3.06-10.48-1.73-15.58 1.2-4.61 3.81-8.89 7.47-12.81 5.68-6.1 14.15-11.59 23.63-16.33a8.39 8.39 0 014.29-.87zm.69 80.04c22.49 3.29 28.8-39.26 0 0z"/><path fill="#7F5635" d="M169.31 207.96l26.99 1.96-13.43 11.86c-7.06 7.14-13.37 11.4-13.47 22.43-.04 3.55.9 6.84 2.9 9.84 28.65-2.64 34.86 39.48-2.97 33.89l-20.22-1.8c24.27-12.77 22.18-25.36-.16-37.81-16.31-15.2-1.14-29.62 20.36-40.37z"/><path fill-rule="nonzero" d="M213.84 210.51c-12.76 2.14-25.74 2.44-45.83 2.44-6.94 4.73-16.01 11.36-20.51 18.15-3.03 4.56-3 9.72 4.9 14.76 9.05 2.54 14.96 8.87 17.37 16.16 1.2 3.67 1.51 7.59.87 11.42-.64 3.82-2.23 7.54-4.82 10.81-5.36 6.77-14.84 11.44-28.6 10.36l-43.67.01c-3.6.26-7.08-1.87-8.38-5.43l-23.39-63.68c-.27-.79-.45-1.63-.49-2.51-.51-11.57 2.37-22.06 11.32-29.83 2.13-5.69 3.36-12.93 3.68-21.68.29-7.74-.14-16.63-1.28-26.66-5.03.83-9.34-.08-12.9-2.8-5.49-4.21-7.77-12.04-6.61-23.72l.03-.23c2.35-18.24 7.97-33.43 16.33-46.05 8.31-12.56 19.28-22.52 32.35-30.38 16.75-12.29 37.38-20.77 61.61-25.68 23.42-4.75 50.22-6.17 80.15-4.49C264.52 3.65 284.18-1.58 301.19.43c14.3 1.7 26.62 8.22 34.94 21.91l49.61 9.18c4.01-7.23 10.02-12.35 16.62-15.1 4.75-1.97 9.83-2.73 14.73-2.18 5.07.56 9.94 2.51 14.08 5.93 5.4 4.45 9.46 11.28 10.86 20.63 11.14 4.51 21.4 9.49 30.46 15.11 10.5 6.54 19.54 13.96 26.66 22.53 6.63 5.98 10.52 12.12 12.06 18.26 1.87 7.44.37 14.48-3.85 20.93-8.7 13.3-19.81 15-32.28 16.9-2.64.4-5.36.82-7.67 1.29L349.7 168.94c-3.88 19.85-10.36 42.89-15.58 61.45-1.5 5.35-2.89 10.3-4.19 15.1-.37 3.64-.47 6.85-.27 9.6.18 2.42.56 4.32 1.17 5.64.44.97 2.36 1.76 4.31 2.57 5.89 2.43 11.94 4.93 14.93 14.64.96 3.09 1.02 6.24.12 9.45-.79 2.82-2.3 5.57-4.56 8.22a8.346 8.346 0 01-6.21 2.89l-54.45.73c-20.25.27-24.56-15.35-24.79-32.93-.07-5.2.22-10.21.49-14.91l.34-6.42.31-7.91c.03-6.15-1.14-9.85-3.09-11.96-1.81-1.97-4.79-2.96-8.28-3.53-.68-.1-1.36-.28-2.03-.55-4.24-1.74-6.26-6.59-4.52-10.83 1.24-3 2.25-5.94 3.05-8.82-12.72 4.63-22.48 7.44-32.61 9.14z"/><path fill="#7F5635" d="M165.47 204.66c42.13.05 52.72-.92 91.44-16.17-.29 7.74-2.18 15.99-5.84 24.86 10.5 1.66 18.71 6.68 18.54 24l-.31 7.91c-.69 18.1-4.97 45.95 15.57 45.68l54.45-.73c2.93-3.43 3.78-6.71 2.82-9.83-3.41-11.05-14.91-7.61-18.86-16.21-2.07-4.52-2.51-11.38-1.53-20.26 5.6-20.78 16.03-55.02 20.72-81.57l122.89-34.58c13.91-2.92 26.63-1.83 35.04-14.68 5.7-8.71 4.34-18.66-7.24-28.88-13.2-16.11-33.99-27.98-58.91-37.56-1.15-32.16-35.55-30.54-43.55-5.77l-59.94-11.08c-15.3-29.98-51.03-23.92-83.36-9.9-60.08-3.63-106.93 5.3-138.58 28.67-24.36 14.53-40.71 36.77-45.06 70.56-1.71 17.18 4.7 21.46 18.16 14.55 4.34 29.16 3.58 50.76-2.42 64.58-6.36 4.83-10.46 12.09-9.91 24.4l23.38 63.68 44.9-.01c30.03 2.36 31.49-28.06 11.29-32.72-29.32-17.28.98-38.64 16.31-48.94z"/><path fill-rule="nonzero" d="M240.83 164.09a4.367 4.367 0 011.62-5.96c2.1-1.2 4.77-.47 5.96 1.62 3.26 5.7 5.58 11.36 6.95 17.11 1.36 5.77 1.76 11.63 1.2 17.69a4.358 4.358 0 01-4.73 3.94 4.366 4.366 0 01-3.95-4.73c.47-5.05.13-9.98-1.03-14.88-1.17-4.93-3.18-9.83-6.02-14.79zM345.27 43.21c.66 2.32-.69 4.74-3.01 5.4-2.32.66-4.74-.69-5.4-3.01-.73-2.56-1.75-5.51-2.81-8.26-1.09-2.84-2.27-5.56-3.27-7.51a4.374 4.374 0 011.91-5.87c2.15-1.09 4.79-.24 5.88 1.91 1.06 2.08 2.37 5.11 3.61 8.33 1.21 3.12 2.33 6.35 3.09 9.01zM350.31 167.22c-.41 2.37-2.68 3.96-5.05 3.55a4.367 4.367 0 01-3.55-5.06c.75-4.28 1.33-8.28 1.66-11.89.35-3.68.49-7.1.36-10.19v-.05c-.12-3.23-.45-6.36-.96-9.37a62.3 62.3 0 00-2.04-8.46c-.74-2.29.52-4.75 2.81-5.48 2.29-.73 4.75.53 5.48 2.82 1 3.09 1.79 6.33 2.35 9.69.56 3.29.92 6.77 1.07 10.45v.06c.14 3.47-.01 7.28-.39 11.33-.39 4.1-.98 8.33-1.74 12.6zM431.09 84.22a4.744 4.744 0 01-4.83-4.65 4.736 4.736 0 014.64-4.83c2.87-.06 5.7.28 8.49 1 2.81.72 5.52 1.8 8.15 3.22a4.766 4.766 0 011.91 6.45c-1.25 2.31-4.14 3.16-6.45 1.91-2.01-1.09-4.01-1.9-5.97-2.4-1.95-.5-3.94-.74-5.94-.7z"/><path d="M503.9 115.8c4.33-12.15.82-22.85-8.3-32.51-9.71-10.29-16.12-5.48-15.92 8.24.14 9.17-.17 17.74 9.39 22.12 3.71 1.7 8.58 2.48 14.83 2.15z"/></svg>