<svg xmlns="http://www.w3.org/2000/svg" shape-rendering="geometricPrecision" text-rendering="geometricPrecision" image-rendering="optimizeQuality" fill-rule="evenodd" clip-rule="evenodd" viewBox="0 0 512 441.17"><path fill="#293137" d="M349.605 123.547c8.184 1.559 12.973 7.493 15.34 16.526C461.267 142.998 454 61.638 438.145 0c67.551 54.487 82.917 148.732-2.847 195.54 34.393.993 53.717 19.305 76.702 24.386-18.907 2.327-32.049 55.177-101.858 24.331a22.095 22.095 0 00-4.251-.785c-4.14-.329-7.823.726-11.07 3.083-2.258 11.857-27.55 32.921-44.848 56.229-7.35 9.907-7.208 12.796-7.576 25.625-.292 10.26.007 20.772-.579 31.139 6.648 14.202 6.963 27.083 1.149 38.685-7.509 19.821-22.293 26.993-41.749 26.047-8.81 15.193-23.932 12.057-45.218 8.524-21.285 3.533-36.411 6.669-45.22-8.524-19.456.946-34.239-6.226-41.749-26.047-5.814-11.602-5.498-24.483 1.149-38.685-.586-10.367-.285-20.876-.579-31.139-.37-12.831-6.111-15.716-13.463-25.625-17.301-23.311-36.7-44.372-38.958-56.229-3.248-2.357-6.931-3.412-11.071-3.083-1.365.109-2.783.37-4.25.785C32.049 275.103 18.907 222.253 0 219.926c22.986-5.081 42.31-23.393 76.702-24.386C-8.207 149.199 7.098 53.846 73.855 0 58 61.638 50.733 142.998 147.056 140.073c2.366-9.033 7.156-14.967 15.339-16.526 45.389-1.877 71.437-10.877 98.786-10.754 23.885.108 52.073 9.332 88.424 10.754z"/><path fill="#252526" d="M317.778 403.846c-40.161 14.199-80.723 15.139-121.77.378 1.555 22.717 14.966 33.838 36.568 36.946h46.749c22.803-1.761 34.813-15.065 38.453-37.324z"/><path fill="#38383A" d="M196.008 403.846c-10.017-8.5-13.497-19.457-12.602-32.044-4.075-48.7 11.665-55.443 60.859-39.783 14.404 4.58 10.683 4.384 25.248-.214 44.069-13.932 59.639-15.464 59.618 39.328.693 13.732-3.408 24.439-11.353 32.713-41.871 14.562-82.415 14.107-121.77 0z"/><path fill-rule="nonzero" d="M289.596 358.798a8.352 8.352 0 0110.002-6.277 8.351 8.351 0 016.276 10.002c-1.348 5.825-3.645 10.986-6.77 15.532-3.127 4.553-7.006 8.386-11.524 11.569a8.35 8.35 0 01-9.606-13.658c2.996-2.11 5.495-4.546 7.403-7.323 1.908-2.78 3.339-6.047 4.219-9.845zm-83.566 3.301c-.792-4.546 2.252-8.883 6.798-9.675 4.546-.793 8.883 2.252 9.675 6.798.584 3.298 1.648 6.367 3.385 9.074 1.766 2.752 4.279 5.269 7.751 7.441 3.895 2.436 5.081 7.576 2.644 11.472a8.328 8.328 0 01-11.472 2.645c-5.759-3.604-9.967-7.841-12.977-12.536-3.037-4.737-4.852-9.856-5.804-15.219z"/><path fill="#C5E0F7" d="M333.615 203.041l11.858-10.329c-.733 17.391 1.081 46.115-23.688 41.406-5.37-1.025-10.413-3.965-15.243-8.066l5.414-5.189c2.443 2.819 5.022 4.633 7.476 5.665 3.326 1.401 5.745-1.067 5.523-5.38-.296-5.738 2.324-6.245 4.153-1.859 4.062 9.762 9.414-6.232 4.507-16.248zm-155.235 0l-11.858-10.329c.733 17.391-1.077 46.115 23.688 41.406 5.37-1.025 10.412-3.965 15.247-8.066l-5.418-5.189c-2.447 2.819-5.023 4.629-7.48 5.665-3.322 1.401-5.609-.657-5.386-4.974.298-5.741-2.325-6.248-4.15-1.855-4.066 9.755-9.55-6.642-4.643-16.658z"/></svg>