<svg xmlns="http://www.w3.org/2000/svg" shape-rendering="geometricPrecision" text-rendering="geometricPrecision" image-rendering="optimizeQuality" fill-rule="evenodd" clip-rule="evenodd" viewBox="0 0 512 453.51"><path fill="#814B24" fill-rule="nonzero" d="M494.21 218.89c7.62 21.25 13.32 44.06 16.66 68.31.32 2.02-.32 4.17-1.91 5.68-235.13 223.29-285.25 180.33-411.33 72.25-26.19-22.44-55.75-47.78-91.06-74.01a6.445 6.445 0 01-2.96-5.98c1.96-22.11 6.92-43.97 14.43-65.02 7.23-20.25 16.85-39.81 28.45-58.19C28.88 137.8 16.48 112.9 8.94 87.98.66 60.57-1.76 33.13 1.23 6.66 1.56 3.78 3.81 1.38 6.81 1 32.63-2.29 57.7 2.65 82.16 14.14c22.89 10.74 45.21 27.19 67.1 47.95 13.61-7.87 27.8-14.49 42.4-19.66 15.7-5.56 31.87-9.48 48.3-11.5h.17c20.82-2.04 42.58-.22 64.32 5.22 20.19 5.04 40.43 13.24 59.95 24.37 21.63-20.27 43.68-36.33 66.27-46.78C454.72 2.6 479.36-2.2 504.74.95c3.08.17 5.68 2.54 6.03 5.71 2.96 26.23.61 53.43-7.51 80.61-7.39 24.74-19.57 49.47-36.88 73.43 10.88 17.77 20.29 37.2 27.83 58.19z"/><path fill="#C57136" d="M503.6 281.85c-7.24-46.38-23.27-87.15-44.95-121.44 37.21-49.93 51.36-103.29 45.74-153.05-48.53-6.19-94.53 18.37-139.05 61.11-40.45-24.07-84.42-35.1-124.61-31.15-32.46 3.98-63.82 15.56-92.43 32.77a.47.47 0 00-.09-.12c-45-43.67-91.5-68.88-140.6-62.61-5.67 50.17 8.76 104.01 46.67 154.29-23.32 35.8-38.96 76.49-43.68 118.29 13.95-4.56 40.27-4.04 73.88.33 38.25 4.96 86.43 14.85 136.66 27.76 2.93.75 4.7 3.73 3.95 6.65-.75 2.93-3.73 4.7-6.65 3.95-49.81-12.81-97.53-22.6-135.34-27.51-31.09-4.03-55.14-4.82-67.57-1.29 195.64 147.11 211.03 260.79 484 3.12-6.26-.02-14.85-.7-25.15-1.51-23.54-1.87-56.23-4.47-87.26-1.43-15.05 1.47-29.7 8.24-44.24 14.96-16.41 7.58-32.71 15.12-50.54 15.83a5.471 5.471 0 01-5.69-5.26c-.12-3.02 2.24-5.56 5.26-5.68 15.61-.63 30.94-7.71 46.38-14.85 15.35-7.09 30.82-14.24 47.8-15.9 32.12-3.14 65.27-.51 89.15 1.38 13.08 1.04 23.3 1.85 28.36 1.36z"/><path fill="#814B24" d="M66.59 141.98c-20.39-31.59-28-64.72-24.49-95.82 30.51-3.89 59.58 9.72 87.75 34.35l.02.02c-24.04 16.59-45.57 37.58-63.28 61.45zM446.39 140.49c19.72-31.16 27.05-63.76 23.59-94.4-29.92-3.82-58.46 9.2-86.12 32.94 23.06 15.87 44.48 36.51 62.53 61.46z"/><path fill="#E5813B" d="M222.96 339.59c-34.19-51.37-83.55-101.84-138.77-135.51C213.7 41.71 222.17 257.57 222.96 339.59z"/><path fill="#814B24" fill-rule="nonzero" d="M223.44 313.57a3.659 3.659 0 01-7.3-.48c3.23-46.04-2.94-88.97-19.12-127.59-15.67-37.41-40.77-70.84-75.84-99.22a3.656 3.656 0 01-.54-5.15 3.654 3.654 0 015.14-.54c36.03 29.15 61.84 63.56 77.99 102.1 16.63 39.69 22.98 83.73 19.67 130.88z"/><circle cx="152.34" cy="195.41" r="22.34"/><path fill="#fff" d="M157.49 186.7c4.81 0 8.71 3.9 8.71 8.71 0 4.82-3.9 8.72-8.71 8.72-4.82 0-8.72-3.9-8.72-8.72 0-4.81 3.9-8.71 8.72-8.71z"/><path fill="#E5813B" d="M290.67 339.59c33.82-51.37 79.94-101.84 134.58-135.51-128.14-162.37-133.81 53.49-134.58 135.51z"/><path fill="#814B24" fill-rule="nonzero" d="M297.14 313.09a3.659 3.659 0 01-3.41 3.89 3.665 3.665 0 01-3.89-3.41c-3.37-48.01 3.57-92.51 20.46-132.33 16.84-39.7 43.55-74.69 79.76-103.81a3.642 3.642 0 015.13.55 3.664 3.664 0 01-.56 5.14c-35.26 28.35-61.25 62.38-77.6 100.95-16.44 38.74-23.18 82.13-19.89 129.02z"/><circle cx="361.52" cy="195.41" r="22.34"/><path fill="#fff" d="M366.67 186.7c4.81 0 8.71 3.9 8.71 8.71 0 4.82-3.9 8.72-8.71 8.72-4.82 0-8.72-3.9-8.72-8.72 0-4.81 3.9-8.71 8.72-8.71z"/><path fill="#683D1D" d="M298.05 309.11v.79c0 24.64-18.6 44.8-41.33 44.8-22.73 0-41.33-20.16-41.33-44.8v-.79h82.66z"/></svg>