<svg xmlns="http://www.w3.org/2000/svg" shape-rendering="geometricPrecision" text-rendering="geometricPrecision" image-rendering="optimizeQuality" fill-rule="evenodd" clip-rule="evenodd" viewBox="0 0 432 512.174"><path fill="#4F3830" fill-rule="nonzero" d="M179.924 208.6c2.829 6.432-.09 13.944-6.522 16.772-6.432 2.828-13.943-.09-16.772-6.522-16.771-38.084-40.883-52.403-62.372-63.905-14.457 5.9-28.686 7.888-42.702 6.419-15.8-1.654-31.04-7.641-45.796-17.298-5.879-3.847-7.53-11.737-3.683-17.617 3.847-5.878 11.737-7.53 17.616-3.683 11.456 7.499 22.942 12.111 34.451 13.314 2.871.302 5.763.392 8.679.27a12.593 12.593 0 01-1.04-1.288c-3.956-3.3-7.657-7.006-11.047-11.345-9.541-12.222-13.946-23.781-14.586-34.648C26.114 83.36 18.825 75.504 14.06 65.68 8.348 53.901 6.612 39.672 8.406 23.294c.741-6.98 7.006-12.038 13.986-11.298 6.979.741 12.038 7.007 11.297 13.986-1.278 11.687-.288 21.328 3.263 28.649a26.97 26.97 0 005.291 7.409c7.387-14.489 20.553-27.356 34.838-38.508 10.784-8.421 21.738-15.497 30.98-21.465A12.643 12.643 0 01111.17.619l.407-.119c5.067-1.402 10.684.455 13.838 5.025 3.138 4.545 2.905 10.419-.154 14.655l-.142.196a12.679 12.679 0 01-3.321 3.09c-8.962 5.786-19.577 12.642-29.091 20.074-19.542 15.256-36.541 34.552-27.318 55.713 3.601-8.975 8.734-16.356 15.317-22.228 12.334-11.003 29.146-16.073 49.913-15.864 7.009.053 12.645 5.784 12.592 12.793-.053 7.008-5.784 12.644-12.793 12.591-14.314-.143-25.387 2.89-32.79 9.494-6.053 5.4-10.085 13.639-11.898 24.963 5.194 3.323 10.972 6.395 17.007 9.604 25.932 13.785 55.938 29.739 77.187 77.994zM389.757 62.04a27.078 27.078 0 005.291-7.409c3.549-7.321 4.541-16.962 3.263-28.649-.741-6.979 4.318-13.245 11.297-13.986 6.98-.74 13.245 4.318 13.986 11.298 1.794 16.38.056 30.607-5.654 42.386-4.765 9.824-12.054 17.677-22.087 23.387-.643 10.866-5.046 22.428-14.589 34.65-3.395 4.346-7.099 8.059-11.06 11.361-.315.447-.659.87-1.029 1.272 2.916.122 5.81.032 8.681-.27 11.509-1.203 22.995-5.815 34.451-13.314 5.879-3.847 13.769-2.195 17.616 3.683 3.847 5.88 2.196 13.77-3.683 17.617-14.756 9.657-29.996 15.644-45.796 17.298-14.016 1.469-28.25-.519-42.704-6.419-21.49 11.502-45.599 25.818-62.37 63.905-2.829 6.432-10.34 9.35-16.772 6.522-6.432-2.828-9.351-10.34-6.522-16.772 21.249-48.255 51.255-64.209 77.184-77.994 6.038-3.209 11.816-6.284 17.01-9.607-1.813-11.324-5.845-19.56-11.901-24.96-7.403-6.604-18.476-9.637-32.79-9.494-7.008.053-12.739-5.583-12.792-12.591-.053-7.009 5.582-12.74 12.591-12.793 20.767-.209 37.579 4.861 49.914 15.864 6.583 5.872 11.718 13.251 15.319 22.228 9.223-21.158-7.776-40.455-27.316-55.713-9.516-7.432-20.137-14.29-29.098-20.077l-.23-.119c-5.856-3.902-7.438-11.813-3.535-17.669 3.902-5.855 11.813-7.437 17.669-3.534l.031.021c9.189 5.966 20.069 12.999 30.79 21.37 14.282 11.152 27.448 24.022 34.835 38.508z"/><path fill="#704B41" d="M215.994 200.773c112.563-.345 141.6 112.482 94.395 195.789-8.591 15.161-16.665 31.938-28.538 42.94 21.673 42.726-20.372 72.342-64.988 72.669-47.093.346-86.605-29.989-65.544-73.618-10.827-10.141-20.022-22.853-27.832-37.197-47.535-87.299-21.012-200.236 92.507-200.583z"/><path fill="#704B41" d="M111.478 275.336a129.959 129.959 0 013.446-9.152c-16.907-.057-37.043-17.976-46.768-29.074 22.652-7.009 58.458-11.748 61.081 4.309 1.291-1.689 1.885-2.342 3.24-3.868-4.252-11.329-10.979-18.145-18.54-22.631-24.971-14.815-59.889 3.41-84.932 12.078 13.071 17.307 39.385 49.139 63.929 51.634 6.358.646 12.549-.365 18.544-3.296zM321.634 275.336a129.959 129.959 0 00-3.446-9.152c16.907-.057 37.043-17.976 46.768-29.074-22.652-7.009-58.458-11.748-61.081 4.309-1.291-1.689-1.885-2.342-3.24-3.868 4.252-11.329 10.979-18.145 18.54-22.631 24.971-14.815 59.889 3.41 84.931 12.078-13.07 17.307-39.384 49.139-63.928 51.634-6.358.646-12.55-.365-18.544-3.296z"/><path fill="#4A322B" fill-rule="nonzero" d="M179.832 480.393a5.245 5.245 0 01.656-7.387 5.246 5.246 0 017.387.656c.749.896 1.72 1.749 2.86 2.534 5.966 4.117 16.02 6.617 26.18 6.85 9.986.231 19.81-1.725 25.501-6.479 1.008-.842 1.868-1.755 2.537-2.728a5.237 5.237 0 017.282-1.334 5.237 5.237 0 011.333 7.282 24.088 24.088 0 01-4.421 4.823c-7.771 6.49-20.18 9.179-32.438 8.898-12.078-.278-24.318-3.448-31.922-8.697-1.945-1.341-3.622-2.82-4.955-4.418z"/><path fill="#BF9275" d="M216.556 405.612c16.058 0 29.076 13.018 29.076 29.076s-13.018 29.076-29.076 29.076-29.076-13.018-29.076-29.076 13.018-29.076 29.076-29.076zm0 3.484c8.362 0 15.141 6.778 15.141 15.14 0 8.363-6.779 15.141-15.141 15.141s-15.141-6.778-15.141-15.141c0-8.362 6.779-15.14 15.141-15.14zM322.439 264.206c-71.999 18.2-76.067 96.734-68.665 157.42 7.944 1.627 16.914 8.335 27.445 19.576 11.833-11.281 19.977-28.156 28.632-43.432 24.412-43.082 28.92-93.861 12.588-133.564zM111.13 264.206c71.999 18.2 76.066 96.734 68.665 157.42-7.945 1.627-16.915 8.335-27.446 19.576-11.833-11.281-21.259-26.874-29.914-42.149-24.412-43.083-27.637-95.144-11.305-134.847z"/><path fill="#4F3830" fill-rule="nonzero" d="M143.735 315.333a26.463 26.463 0 0118.764 7.773l.283.307c4.633 4.778 7.49 11.29 7.49 18.457 0 7.308-2.974 13.944-7.773 18.746-4.821 4.818-11.457 7.792-18.764 7.792-7.311 0-13.941-2.974-18.743-7.773a26.402 26.402 0 01-7.792-18.765 26.463 26.463 0 017.773-18.764l.307-.283c4.778-4.633 11.29-7.49 18.455-7.49z"/><path fill="#fff" d="M143.735 320.585c11.755 0 21.285 9.53 21.285 21.285 0 11.756-9.53 21.286-21.285 21.286-11.753 0-21.283-9.53-21.283-21.286 0-11.755 9.53-21.285 21.283-21.285z"/><path d="M143.735 329.771c6.683 0 12.1 5.417 12.1 12.1 0 6.681-5.417 12.099-12.1 12.099-6.081 0-11.114-4.488-11.969-10.332.174.01.35.015.526.015 5.336 0 9.662-4.325 9.662-9.661 0-1.402-.3-2.734-.837-3.936.843-.186 1.72-.285 2.618-.285z"/><path fill-rule="nonzero" d="M143.735 327.437c3.976 0 7.585 1.62 10.197 4.226 2.616 2.622 4.235 6.23 4.235 10.207 0 3.977-1.619 7.586-4.225 10.197-2.622 2.617-6.231 4.236-10.207 4.236a14.375 14.375 0 01-9.422-3.511 14.428 14.428 0 01-4.855-8.818l-.402-2.744 3.235.095a7.334 7.334 0 005.181-2.154 7.308 7.308 0 002.148-5.18c0-.54-.055-1.056-.156-1.532a7.013 7.013 0 00-.471-1.455l-1.159-2.593 2.773-.624a14.441 14.441 0 013.128-.35z"/><path fill="#4F3830" fill-rule="nonzero" d="M288.93 317.111c6.81 0 12.999 2.772 17.486 7.255l.029.029c4.477 4.487 7.244 10.667 7.244 17.475 0 6.811-2.773 12.999-7.255 17.487l-.029.029c-4.487 4.476-10.67 7.244-17.475 7.244-6.821 0-13.007-2.773-17.489-7.252-4.498-4.501-7.271-10.687-7.271-17.508s2.773-13.007 7.252-17.489c4.501-4.498 10.687-7.27 17.508-7.27z"/><path fill="#fff" d="M288.93 322.011c10.967 0 19.859 8.892 19.859 19.859 0 10.967-8.892 19.86-19.859 19.86-10.97 0-19.86-8.893-19.86-19.86 0-10.967 8.89-19.859 19.86-19.859z"/><path d="M288.929 329.771c6.682 0 12.099 5.417 12.099 12.1 0 6.681-5.417 12.099-12.099 12.099-6.081 0-11.114-4.488-11.97-10.332.174.01.35.015.527.015 5.335 0 9.661-4.325 9.661-9.661a9.625 9.625 0 00-.836-3.936 12.14 12.14 0 012.618-.285z"/><path fill-rule="nonzero" d="M288.93 327.437a14.4 14.4 0 0110.194 4.228c2.622 2.625 4.239 6.234 4.239 10.205 0 3.977-1.62 7.586-4.226 10.197-2.622 2.617-6.231 4.236-10.207 4.236-3.593 0-6.89-1.325-9.422-3.511a14.398 14.398 0 01-4.855-8.818l-.403-2.744 3.236.095a7.334 7.334 0 005.181-2.154 7.29 7.29 0 002.146-5.18c0-.54-.056-1.056-.157-1.532a7.071 7.071 0 00-.47-1.455l-1.159-2.593 2.772-.624a14.332 14.332 0 011.562-.26c.542-.058 1.074-.09 1.569-.09z"/></svg>