<svg xmlns="http://www.w3.org/2000/svg" shape-rendering="geometricPrecision" text-rendering="geometricPrecision" image-rendering="optimizeQuality" fill-rule="evenodd" clip-rule="evenodd" viewBox="0 0 479 512.4"><path fill="#9B5927" d="M326.59 62.36c14.76-15.67 18.81-35.58 33.57-51.24-2.1 16.35 3.28 40.49.16 60.6 8.7-14.53 13.86-32.28 30.09-45.81-3.26 49.83-3.44 72.1-11.96 81.24 9.69 10.51 20.77 25.91 23.92 35.93 4.12 13.08 1.77 22.17 11.9 36.42l28.86 40.64c8.14 8.01 15.89 16.4 22.38 25.99 9.51 14.08 11.96 16.44 7.21 31.87-6.99 22.59-13.56 36.58-36.69 39.5-8.87 4.87-17.67 5.94-26.37 2.27-5.04-2.12-10.05-5.84-15.03-11.34-13.97-15.46-19.63-21.1-38.63-32.44-17.1-10.2-54.13-24.38-64.92-18.23-4.69 2.68-9.18 6.08-12.33 12.23-1.2 2.35-2.48 4.98-3.82 7.83-21.95 46.76-60.09 155.78-64.1 176.75-3.65 19.13-4.52 36.76-5.44 53.09L18.72 257.02C143.7 172.29 277.37 50.48 326.59 62.36z"/><path fill="#89491E" fill-rule="nonzero" d="M325.21 58.23c6.27-7.11 10.54-15.19 14.81-23.26 4.82-9.12 9.66-18.26 17.38-26.46L365.42 0l-1.49 11.59c-.91 7.11-.32 16.08.31 25.53.37 5.67.76 11.52.85 17.35 5.44-10.84 11.54-22.01 22.9-31.47l6.79-5.66-1.72 26.94c-2.14 34.6-3.27 52.9-9.67 62.68 4.65 5.26 9.45 11.45 13.49 17.51 4.17 6.25 7.54 12.44 9.12 17.48 1.44 4.57 2.12 8.64 2.78 12.58 1.2 7.18 2.34 13.98 8.58 22.77l28.67 40.36c4.04 3.98 8 8.08 11.77 12.38 3.88 4.44 7.55 9.06 10.86 13.96l1.43 2.13c9.14 13.46 11.29 16.64 6.25 32.98-3.61 11.7-7.16 21.23-12.96 28.39-5.9 7.31-13.9 11.98-26.14 13.66-4.67 2.48-9.37 4.01-14.11 4.45-5 .48-10-.26-14.94-2.34-2.81-1.19-5.6-2.8-8.34-4.87-2.68-2.01-5.36-4.49-8.03-7.43-6.86-7.59-11.69-12.78-17.09-17.42-5.36-4.62-11.39-8.76-20.68-14.31-9.35-5.58-24.89-12.4-38.59-16.24-10.02-2.82-18.77-4.06-22.5-1.94-2.12 1.21-4.19 2.58-6.04 4.29-1.8 1.68-3.44 3.73-4.79 6.36l-3.78 7.74c-10.03 21.37-23.51 55.96-35.54 89.12-14.07 38.83-26.13 75.57-28.24 86.69-3.46 18.12-4.4 34.93-5.27 50.52l-.38 6.62-7.07-9.49c.85-15.17 1.89-31.47 5.25-49.06 2.2-11.52 14.39-48.74 28.57-87.87 12.07-33.29 25.65-68.11 35.82-89.77l3.88-7.95c1.8-3.5 3.98-6.24 6.38-8.47 2.35-2.19 4.89-3.87 7.46-5.33 5.71-3.26 16.51-2.08 28.31 1.22 14.3 4.02 30.58 11.17 40.42 17.05 9.7 5.79 16.03 10.15 21.73 15.05 5.66 4.87 10.67 10.25 17.78 18.11 2.3 2.55 4.63 4.7 6.95 6.44 2.26 1.7 4.51 3.01 6.73 3.95 3.74 1.57 7.52 2.14 11.29 1.78 3.85-.37 7.79-1.71 11.78-3.9l.61-.33.74-.1c10.46-1.32 17.14-5.08 21.92-10.99 5.01-6.2 8.25-14.98 11.61-25.86 3.97-12.88 2.21-15.48-5.27-26.49l-1.44-2.13c-3.18-4.69-6.64-9.06-10.28-13.22-3.69-4.2-7.61-8.24-11.62-12.2-6.02-5.79-23.14-32.47-29.3-41.14-7.26-10.22-8.54-17.85-9.89-25.92-.61-3.67-1.24-7.45-2.54-11.57-1.35-4.32-4.39-9.85-8.19-15.55-4.42-6.64-9.85-13.46-14.9-18.93l-2.39-2.58 2.41-2.58c6.48-6.95 7.56-24.4 9.81-60.74l.51-8.31c-6.84 7.8-11.24 16.6-15.46 25.07-2.2 4.42-4.38 8.78-6.96 13.08l-9.98 16.68 2.98-19.21c1.62-10.44.83-22.34.08-33.54-.34-5.18-.67-10.22-.76-14.99-3.45 5.11-6.3 10.5-9.15 15.89-4.83 9.13-9.66 18.27-17.39 26.46l-1.51 1.61-2.14-.52c-32.55-7.86-107.18 48.26-191.2 111.45-36.89 27.75-75.58 56.85-113.51 82.56l-4.53-6.08c37.87-25.67 76.58-54.79 113.49-82.55 83.78-63.01 158.38-119.1 195.26-113.2z"/><path fill-rule="nonzero" d="M316.23 59.89c-1.28-.48-2.65-.88-4.11-1.21-6.06-1.4-13.46-1.59-21.26-.83-11.58 1.13-22.03 4.53-32.6 7.95-7.57 2.46-15.2 4.94-23.55 6.7-5.37 1.13-10.53 1.85-15.57 2.53-11.9 1.64-23.11 3.19-34.41 10.26-6.42 4.03-8.02 7.23-9.54 10.28-2.66 5.34-5.17 10.36-21.5 16.89-54.57 21.81-79.88 50.46-108 82.27-12.3 13.93-25.15 28.45-41.12 43.29L0 231.88c15.51-14.46 28.01-28.61 40-42.18 28.75-32.53 54.64-61.82 110.87-84.29 13.63-5.45 15.52-9.23 17.51-13.24 1.98-3.95 4.05-8.1 12.34-13.3 12.72-7.97 24.7-9.62 37.41-11.37 4.88-.66 9.88-1.35 15.04-2.44 7.87-1.66 15.34-4.09 22.74-6.49 10.93-3.55 21.75-7.06 34.24-8.28 8.57-.83 16.78-.59 23.66.98 6.67 1.53 12.18 4.35 15.72 8.68.45.55.75 1.23.83 1.99a3.806 3.806 0 01-3.36 4.2c-33.9 3.76-54.96 13.11-68.2 25.92-13.12 12.69-18.76 29.03-21.79 46.83-1.14 6.76-1.61 13.29-2.05 19.55-1.18 16.52-2.24 31.39-14.81 46.57-.78.94-2.01 1.49-3.31 1.36-2.08-.21-3.6-2.08-3.39-4.17 1.66-15.89.18-28.98-3.43-40.11-2.25-6.93-5.34-13.13-9.03-18.81.54 16.32.34 31.24-.55 44.58-1.15 17.1-3.45 31.67-6.79 43.31-.19.7-.6 1.36-1.19 1.87-1.61 1.35-4.01 1.15-5.36-.45-6.84-8.1-8.99-21.42-11.58-37.48l-.06-.41c-.43 5.55-.7 12.61-1 20.73-.76 20.09-1.75 46.2-7.29 73.04-8.92 43.18-29.24 68.93-48.77 93.65l-3.34 4.25-4.69-6.3 2.09-2.64c18.97-24.03 38.71-49.04 47.27-90.48 5.42-26.27 6.4-51.99 7.14-71.79.8-21.17 1.36-36.04 7.75-39.81 1.8-1.05 4.13-.45 5.19 1.35.22.39.37.8.45 1.21 1.03 5.32 1.92 10.81 2.76 16.01 1.64 10.19 3.09 19.2 5.6 25.95 1.99-9.35 3.42-20.24 4.23-32.51 1.11-16.39 1.14-35.2.02-56.08-.1-2.09 1.51-3.89 3.6-3.99 1.24-.06 2.36.48 3.1 1.36 7.48 8.92 13.74 18.97 17.68 31.09 2.73 8.39 4.34 17.77 4.47 28.43 4.18-9.59 4.89-19.55 5.65-30.27.46-6.42.94-13.1 2.15-20.26 3.27-19.22 9.45-36.97 23.98-51.03 13.04-12.6 32.65-22.08 62.73-26.72z"/><path fill="#36261E" d="M326.59 62.36c-6.27-7.66-20.48-9.81-36.08-8.29-20.42 1.99-36.8 10.54-56.57 14.71-18.33 3.86-34.37 2.74-51.21 13.3-17.19 10.78-4.22 16.37-30.45 26.85-79.07 31.61-97.44 77.1-150 126.01l110.43 148.28c20.05-25.47 41.59-51.19 50.74-95.51 10.97-53.12 3.9-103.67 13.09-109.08 4.31 22.41 5.28 41.83 13.46 51.5 6.48-22.59 8.95-56.54 6.66-99.05 14.39 17.17 24 38.56 20.56 71.51 16.5-19.94 11.91-39.95 16.05-64.32 6.3-37.03 23.62-68.17 93.32-75.91z"/><path fill="#89491E" fill-rule="nonzero" d="M398.34 284.37a5.698 5.698 0 01.07-8.05c2.24-2.21 5.85-2.17 8.05.07l7.2 7.15c9.84 9.71 19.44 19.19 24.24 28.03 1.51 2.76.49 6.22-2.27 7.72s-6.22.48-7.72-2.27c-3.98-7.34-13-16.24-22.24-25.35l-7.33-7.3z"/><path fill="#36261E" d="M454.84 269.27c.5-9.22 2.09-10.73 7.69-13.52 18.29-9.16 7.55 40.18-4.18 44.18-4.65-6.57-5.53-17.08-3.51-30.66zM335.79 158.93c17.04-8.24 25.54-.9 30.61 3.48l1.7 1.42c1.37.97 1.73 2.84.86 4.25-1.33 2.15-3.14 3.79-5.23 4.94-3.15 1.74-6.94 2.36-10.78 2-3.72-.35-7.52-1.63-10.81-3.69-3.15-1.97-5.91-4.68-7.75-8.02a3.165 3.165 0 011.26-4.3l.14-.08z"/><path fill="#89491E" d="M336.68 266.39c-49.22-24.8-58.73-70.47-47.7-121.4-17.78 21.88-19.3 56.64-11.05 82.84 3.89 12.37 6.51 23.48 13.61 26.27 9.64 3.79 27.41 1.93 45.14 12.29z"/></svg>