<svg xmlns="http://www.w3.org/2000/svg" shape-rendering="geometricPrecision" text-rendering="geometricPrecision" image-rendering="optimizeQuality" fill-rule="evenodd" clip-rule="evenodd" viewBox="0 0 406 512.419"><path fill="#E4C074" d="M274.557 161.101l15.567-17.357c9.592 6.405 16.033 15.205 21.073 25.723 3.619 7.56 1.828 7.837 11.32 7.349 9.984-.514 21.991-4.049 34.971-9.109 2.631-1.03 4.007-1.07 3.679-4.513a5.789 5.789 0 00-.117-.741c-3.77-3.794-7.682-7.747-11.247-11.69a3.88 3.88 0 01.271-5.479 3.882 3.882 0 015.479.272c3.682 4.076 7.67 8.088 11.487 11.93l.925.931c.318-3.564.696-7.104 1.142-10.617a237.94 237.94 0 013.048-18.39 3.234 3.234 0 013.822-2.504 3.232 3.232 0 012.503 3.821c-1.219 5.873-2.189 11.837-2.955 17.871a290.837 290.837 0 00-1.131 10.494c1.98-1.887 3.99-3.976 5.945-6.151 4.345-4.838 8.334-10.016 11.092-14.325a3.228 3.228 0 115.433 3.487c-2.976 4.651-7.187 10.134-11.706 15.165-2.42 2.693-4.955 5.285-7.466 7.586 5.718 1.225 11.256 2.351 17.417 3.602l8.296 1.691a3.24 3.24 0 012.53 3.819 3.242 3.242 0 01-3.82 2.529l-8.295-1.69c-6.412-1.302-12.111-2.462-18.766-3.906.787 2.179 1.861 4.571 3.12 7.034 2.645 5.169 6.057 10.511 9.354 14.823a3.236 3.236 0 01-.612 4.534 3.236 3.236 0 01-4.534-.613c-3.157-4.131-6.398-9.11-9.048-14.025-3.886-4.327-7.452-6.689-10.4-5.271-16.825 11.298-31.964 17.462-45.711 19.406-15.68 1.582-13.689-6.599-24.964-19.41-4.823-5.475-12.545-12.375-17.702-16.276zM231.1 197.599l-13.912 18.712c8.185 8.126 18.091 12.687 29.4 15.53 8.13 2.045 8.045.234 9.457 9.634 1.483 9.887.408 22.357-1.968 36.083-.487 2.785-.251 4.14-3.691 4.505-.113.012-.226.02-.34.025-3.357-2.198-6.773-4.4-10.033-6.329a3.467 3.467 0 00-3.531 5.965c4.338 2.568 8.499 5.306 12.48 7.924l.984.648c-3.049.91-6.082 1.87-9.099 2.892a212.784 212.784 0 00-15.544 5.931 2.888 2.888 0 002.268 5.311 207.362 207.362 0 0115.129-5.767 253.92 253.92 0 018.97-2.848 97.302 97.302 0 01-4.322 6.298c-3.436 4.629-7.259 9.037-10.566 12.241a2.889 2.889 0 004.02 4.15c3.515-3.405 7.563-8.07 11.188-12.954 1.935-2.603 3.755-5.28 5.319-7.875 2.2 5.029 4.1 9.512 6.216 14.508l2.993 7.047a2.885 2.885 0 005.314-2.243l-2.991-7.048c-2.339-5.52-4.426-10.446-6.709-15.654 2.054.298 4.338.811 6.71 1.474 4.966 1.389 10.25 3.429 14.632 5.559a2.89 2.89 0 002.529-5.195c-3.614-1.756-7.816-3.459-12.003-4.828-6.254-3.32-10.271-6.727-9.358-10.325 7.723-18.736 10.751-34.798 9.92-48.657-1.569-15.683-9.191-12.103-23.989-20.603-6.326-3.636-14.625-9.832-19.473-14.111zm-19.828-17.375l-3.888 22.988c-11.531-.29-21.676-4.29-31.555-10.489-7.098-4.457-5.733-5.649-13.496-.165-8.166 5.767-16.428 15.17-24.698 26.381-1.674 2.277-2.816 3.044-.699 5.78.226.294.483.569.775.825 3.914.904 7.955 1.868 12.056 3.013a3.463 3.463 0 01-1.864 6.669c-4.467-1.248-9.514-2.404-14.344-3.509l-1.155-.264a255.435 255.435 0 014.206 8.558 211.63 211.63 0 016.466 15.328 2.89 2.89 0 01-1.69 3.72 2.89 2.89 0 01-3.719-1.692c-1.877-5.003-3.995-9.975-6.304-14.914a257.078 257.078 0 00-4.142-8.454 98.085 98.085 0 00-1.559 7.482c-.962 5.663-1.5 11.475-1.526 16.098a2.894 2.894 0 01-5.788-.022c.027-4.877.598-11.029 1.621-17.045.543-3.198 1.218-6.364 2.011-9.289-5.017 1.843-9.696 3.62-14.912 5.603l-7.029 2.666a2.893 2.893 0 01-3.729-1.678 2.895 2.895 0 011.678-3.73l7.031-2.665c5.544-2.108 10.472-3.981 16.068-6.024-1.637-1.276-3.585-2.571-5.704-3.824-4.432-2.622-9.56-5.027-14.135-6.719a2.894 2.894 0 012.002-5.43c3.2 1.184 6.669 2.704 10.025 4.41 7.04 2.402 12.559 3.085 14.589-.163 8.188-18.538 17.694-31.835 28.277-40.822 12.412-9.715 15.097-1.734 31.472 3.073 7.002 2.053 17.218 3.76 23.659 4.304zm38.662-51.5l20.263-11.915c-6.599-9.461-16.536-17.024-27.153-21.848-7.631-3.466-7.875-1.668-7.577-11.17.31-9.991 3.602-22.068 8.397-35.148.976-2.652.987-4.028 4.436-3.77.322.023.645.074.969.155 3.738 3.564 7.629 7.252 11.603 10.699a3.883 3.883 0 005.092-5.864c-4.074-3.534-8.207-7.477-12.16-11.249l-.941-.898c3.541-.391 7.07-.842 10.585-1.36 6.195-.914 12.309-2.035 18.313-3.41a3.235 3.235 0 00-1.432-6.308 230.598 230.598 0 01-17.815 3.327c-3.471.513-6.961.956-10.466 1.342a109.445 109.445 0 016.022-6.07c4.705-4.404 9.804-8.495 14.101-11.369a3.24 3.24 0 00.898-4.49 3.24 3.24 0 00-4.491-.898c-4.546 3.041-9.939 7.367-14.916 12.024-2.654 2.485-5.197 5.069-7.44 7.613-1.43-6.035-2.628-11.376-3.966-17.338l-1.856-8.25a3.233 3.233 0 10-6.309 1.409l1.856 8.25c1.482 6.602 2.801 12.484 4.275 18.695-2.2-.74-4.611-1.761-7.086-2.965-5.204-2.531-10.617-5.837-15.011-9.058a3.235 3.235 0 00-4.519.698 3.236 3.236 0 00.7 4.521c4.011 2.941 8.822 5.948 13.609 8.447 4.833 4.018 7.592 7.742 6.164 10.869-10.953 17.049-16.807 32.311-18.472 46.095-1.264 15.71 6.873 13.552 19.911 24.565 5.574 4.709 10.411 9.594 14.416 14.669z"/><path fill="#EECF7D" d="M201.953 148.714c19.487-25.228 46.117-39.42 86.558-56.91 20.495-10.817 19.419-8.814 32.221-27.845 3.715-5.523 6.896-10.315 10.56-13.788 10.524-9.982 29.887-11.028 43.925-12.491 8.612-.895 19.876-2.803 26.422 4.49 3.944 4.397 1.473 13.166-1.507 20.329-3.563 8.564-9.298 19.098-15.494 28.522-8.831 13.428-16.485 17.78-27.838 20.484-13.998 3.33-10.241-2.417-22.861 6.22-9.365 6.411-18.064 12.501-26.436 20.241-10.653 9.844-76.408 91.578-81.064 103.732-9.596 30.523-19.522 57.534-29.957 80.161-21.124 45.806-39.963 68.38-85.606 90.055-12.948 6.146-25.905 9.679-38.294 13.746-45.151 14.824-62.886 40.559-71.177 86.759-6.855-25.161 12.716-60.816 29.634-78.797 33.183-35.27 71.267-27.713 105.389-73.798 50.673-68.435 13.066-143.196 65.525-211.11z"/><path fill="#D9B36D" d="M207.203 142.377c4.358-4.911 9.053-9.393 14.151-13.575l50.551 50.551c-2.86 3.754-5.745 7.581-8.6 11.406l-.013.016-56.089-48.398zm70.519-45.828a899.512 899.512 0 0110.79-4.743c2.614-1.381 4.877-2.551 6.863-3.585l33.202 33.202c-4.231 2.706-8.327 5.438-12.3 8.393l-38.555-33.267zm-91.599 246.108l-.003.004-30.456-18.553.11-.451c2.052-5.675 3.726-11.376 5.123-17.097l31.159 22.342c-1.945 4.851-3.911 9.426-5.933 13.755zM85.606 399.742c5.911-2.771 11.828-5.744 17.714-9.347l.245-.124 19.94 15.246c-4.45 1.678-9.193 3.258-14.265 4.76-1.883.558-3.777 1.06-5.68 1.518l-17.954-12.053zm85.353-168.16c.855-6.67 1.884-13.327 3.228-19.958l49.197 35.276a943.212 943.212 0 01-3.374 14.56l-49.051-29.878z"/><circle fill="#926D31" transform="matrix(2.45283 1.93474 -1.93474 2.45284 376.712 75.174)" r="1.745"/><circle fill="#926D31" transform="matrix(2.45283 1.93474 -1.93474 2.45284 359.223 54.631)" r="1.745"/></svg>