<svg xmlns="http://www.w3.org/2000/svg" shape-rendering="geometricPrecision" text-rendering="geometricPrecision" image-rendering="optimizeQuality" fill-rule="evenodd" clip-rule="evenodd" viewBox="0 0 512 481.86"><path fill="#969CA0" d="M19.35 319.27c85.92 149.28 326.71 193.82 467.7 5.6 27.11-36.19 27.1-35.71 14.65-80.87-8.8-31.91-21.82-60.69-37.84-86.04C502.03 106.75 516.55 52.01 510.78.97 461-5.38 413.81 19.82 368.15 63.66c-41.49-24.69-86.58-36.01-127.82-31.96-33.29 4.09-65.46 15.96-94.81 33.62a.913.913 0 00-.08-.13C99.28 20.41 51.57-5.45 1.22.97-4.6 52.43 10.2 107.66 49.09 159.23c-16.66 25.58-29.5 53.6-37.4 82.73-9.97 36.76-10.8 45.23 7.66 77.31z"/><path fill="#767779" d="M61.72 139.06C40.8 106.65 32.99 72.67 36.6 40.77c31.29-3.99 61.11 9.97 90 35.24l.03.02c-24.66 17.01-46.75 38.54-64.91 63.03zM451.29 137.53c20.22-31.96 27.74-65.41 24.19-96.83-30.69-3.91-59.96 9.44-88.33 33.79 23.65 16.27 45.63 37.45 64.14 63.04zM177.55 439.59c32.18 11.77 49.09-80.09 62.59-195.07-6.79-14.39-16.66-24.47-28.41-30.75-74.97-40.05-191.64 71.68-163.84 150.25 7.68 21.7 28.63 39.24 58.88 54.03 19.48 9.52 43.19 17.25 70.78 21.54zM334.44 439.59c-32.18 11.77-49.08-80.09-62.58-195.07 6.78-14.39 16.65-24.47 28.41-30.75 74.97-40.05 191.63 71.68 163.83 150.25-7.68 21.7-28.63 39.24-58.88 54.03-19.48 9.52-43.19 17.25-70.78 21.54z"/><path fill="#565658" fill-rule="nonzero" d="M168.8 446.44c-6.13-3.49-10.3-10.61-12.43-19.49-5.57-23.29 2.42-54.98 21.48-70.18 9.72-7.76 22.53-11.71 38.6-8.83 2.34.42 4.7.97 7.08 1.66 10.15-1.03 17.58 3.49 23.22 13.33 3.09 5.39 5.61 12.48 7.73 21.21 2.13-8.73 4.65-15.82 7.75-21.21 5.63-9.84 13.08-14.36 23.23-13.33 40.93-11.84 66.93 19.57 68.84 58.06.86 17.29-4.06 33.03-14.11 38.78-42.2 24.16-64.54 35.69-87.04 35.42-22.53-.29-43.93-12.36-84.35-35.42z"/><path fill="#fff" d="M170.72 443.05c-10.54-6.01-14.41-25.86-10.89-45.45 5-27.84 25.12-55.52 63.32-44.05 17.63-2.28 25.82 15.35 31.33 51.3 5.51-35.95 13.72-53.58 31.35-51.3 65.07-19.54 77.92 74.91 52.42 89.5-83.2 47.62-87.79 45.48-167.53 0z"/><path fill="#898D91" d="M217.71 397.9l39.1-256.58 37.47 256.58z"/><path fill="#7B7F83" d="M256.78 141.51l.03-.19 37.47 256.58h-37.5z"/><path fill="#283137" d="M294.23 397.9c-20.04 28.68-63.49 28.45-76.47.08 11.56-8.11 27.64-12.37 41.6-12.37 8.27 0 33.41 2.23 34.87 12.29z"/><path fill="#8A8F94" fill-rule="nonzero" d="M337.73 253.56c-7.08 0-13.5 2.87-18.13 7.5-4.63 4.65-7.51 11.07-7.51 18.14 0 7.09 2.87 13.5 7.51 18.13a25.542 25.542 0 0018.13 7.51c7.08 0 13.49-2.87 18.13-7.51l.09-.08a25.556 25.556 0 007.42-18.05c0-7.07-2.87-13.49-7.51-18.13a25.56 25.56 0 00-18.13-7.51zm-20.61 5.03a29.043 29.043 0 0120.61-8.54c8.05 0 15.35 3.26 20.62 8.54 5.27 5.27 8.54 12.56 8.54 20.61 0 7.99-3.23 15.25-8.44 20.51l-.1.11a29.082 29.082 0 01-20.62 8.53c-8.04 0-15.33-3.26-20.6-8.53a29.034 29.034 0 01-8.55-20.62c0-8.05 3.26-15.34 8.54-20.61z"/><circle fill="#283137" cx="337.73" cy="279.2" r="22.29"/><circle fill="#fff" cx="344.14" cy="276.18" r="7.75"/><path fill="#8A8F94" fill-rule="nonzero" d="M174.26 253.56c-7.09 0-13.5 2.87-18.13 7.5-4.64 4.65-7.51 11.07-7.51 18.14 0 7.09 2.87 13.5 7.5 18.13a25.566 25.566 0 0018.14 7.51c7.07 0 13.49-2.87 18.13-7.51l.09-.08a25.598 25.598 0 007.42-18.05c0-7.07-2.87-13.49-7.51-18.13a25.577 25.577 0 00-18.13-7.51zm-20.61 5.03a29.025 29.025 0 0120.61-8.54c8.05 0 15.34 3.26 20.62 8.54a29.058 29.058 0 018.53 20.61c0 7.99-3.22 15.25-8.44 20.51l-.09.11c-5.28 5.27-12.57 8.53-20.62 8.53-8.04 0-15.33-3.26-20.61-8.53-5.28-5.28-8.54-12.57-8.54-20.62s3.26-15.34 8.54-20.61z"/><circle fill="#283137" cx="174.26" cy="279.2" r="22.29"/><circle fill="#fff" cx="180.66" cy="276.18" r="7.75"/></svg>