<svg xmlns="http://www.w3.org/2000/svg" shape-rendering="geometricPrecision" text-rendering="geometricPrecision" image-rendering="optimizeQuality" fill-rule="evenodd" clip-rule="evenodd" viewBox="0 0 512 463.04"><defs><linearGradient id="prefix__a" gradientUnits="userSpaceOnUse" x1="305.54" y1="55.55" x2="227.4" y2="235.45"><stop offset="0" stop-color="#508BEE"/><stop offset=".51" stop-color="#5599EF"/><stop offset="1" stop-color="#5BA8F0"/></linearGradient><linearGradient id="prefix__b" gradientUnits="userSpaceOnUse" x1="196.42" y1="435.81" x2="543.06" y2="446.49"><stop offset="0" stop-color="#6C81F7"/><stop offset="1" stop-color="#7EB8FA"/></linearGradient></defs><path fill="#2867C0" fill-rule="nonzero" d="M.96 145.16c1.64-4.76 5.76-10.07 11.8-15.81l.29-.28c32.44-29.07 64.29-52.9 95.3-69.4 30.27-16.11 59.78-25.28 88.31-25.62 6.97-10.65 25.47-20.5 46.33-26.77 22.36-6.72 47.87-9.61 64.69-5.11 1.48.4 2.77 1.44 3.44 2.95 3.91 8.85 2.34 18.89-2.89 28.91-4.5 8.62-11.8 17.33-20.57 25.18 36.07 23.85 64.05 56.9 84.32 95.31 22.7 43.01 35.75 92.77 39.69 143.87l40.23 17.35c4.89 2.7 8.21 6.19 10.03 9.82 1.51 3.02 2.03 6.13 1.65 9.05-.41 3.07-1.79 5.89-4.07 8.15-2.36 2.36-5.67 4.08-9.81 4.77-3.07.52-6.92.48-10.85.44-2.95-.02-5.97-.05-8.41.17-15.01 1.37-29.64 4.62-43.94 9.3-14.34 4.68-28.33 10.81-42.05 17.93-3.83 2.25-7.77 3.29-11.26 3.17l-.12-.01c-2.95-.12-5.62-1.05-7.76-2.73-2.23-1.75-3.82-4.24-4.49-7.41-.73-3.4-.37-7.63 1.52-12.57a7 7 0 01.49-.94l23.8-37.29c-17.25-23.9-34.65-44.97-52.18-63.08-15.34-15.85-30.78-29.43-46.3-40.67-.29 6.85-1.59 14.2-3.69 21.24-3.21 10.77-8.35 21.03-14.66 28l-.27.32c-1.78 1.92-3.86 3.09-6.18 3.58l-.27.06c-5.55 1.04-11.74-2.15-17.96-8.1-5.33-5.09-10.98-12.38-16.35-20.66-12.95-19.95-24.54-46.23-26.11-61.43-19.71-4.5-40.35-7.45-61.6-9.3-22.81-1.98-46.05-2.71-69.41-2.75l-4.31.1c-6.99.24-14.29.49-20.9-3.87-6.15-4.05-7.7-9.42-5.48-15.87z"/><path fill="url(#prefix__a)" d="M16.53 132.96c-11.06 10.46-14.84 18.7-7.23 23.71 6.51 4.29 14.92 2.89 22.35 2.91 47.3.09 93.64 2.89 136.08 13.1-1.26 24.41 43.04 103.31 57.95 87.18 11.85-12.82 19.43-39.01 16.76-56.35 37.51 25.03 74.33 63.28 110.49 113.9l-25.7 40.27c-5.49 14.38 4.76 19.15 14.82 13.05 27.93-14.5 56.99-24.96 87.92-27.79 5.96-.54 13.98.26 18.87-.56 12-2.02 13.47-14.92.54-22.06l-42.69-18.38C399.8 203.08 358.56 109 278.89 59.8c20.19-16.2 34.26-37.17 27.44-52.57-31.76-8.51-97.74 11.36-106.58 32.04-57.18-.63-118.92 36.06-183.22 93.69z"/><path fill="#3F77CE" d="M280.12 58.8c19.53-16.06 32.89-36.48 26.21-51.57-31.76-8.51-97.74 11.36-106.58 32.04l80.37 19.53z"/><path fill="#EFF8F7" fill-rule="nonzero" d="M111.31 105.09c1.75 2.08 2.8 4.74 2.8 7.63 0 3.27-1.35 6.25-3.51 8.4a11.955 11.955 0 01-8.44 3.48c-3.01 0-5.76-1.11-7.87-2.95a11.786 11.786 0 01-3.97-7.39l-.02-.11c-.37-4.25.8-7.43 3.29-9.67 5.15-4.64 13.2-4.75 17.72.61z"/><path fill="url(#prefix__b)" fill-rule="nonzero" d="M179.11 443.48c-2.94-1.28-4.5-5.33-3.49-9.05 1.01-3.72 4.21-5.69 7.15-4.41 24.68 10.79 41.98 16.97 56.84 18.41 14.43 1.4 26.75-1.75 41.78-9.54l.32-.15c25.73-13.23 43.03-8.04 61.96-2.36 18.43 5.53 38.56 11.57 70.67-1.21l.46-.16c25.9-9.46 42.32-4.15 62.59 2.4 8.83 2.84 18.45 5.96 29.77 8.04 3.08.55 5.22 4.17 4.78 8.07-.43 3.9-3.29 6.61-6.37 6.06-12.08-2.22-21.92-5.41-30.96-8.32-18.67-6.04-33.79-10.92-56.72-2.55l-.2.08c-35.07 13.97-56.76 7.46-76.63 1.5-17.13-5.15-32.79-9.84-55.15 1.65l-.24.13c-16.76 8.68-30.57 12.18-46.9 10.6-15.91-1.54-34.01-7.97-59.66-19.19zm0-46.47c-2.94-1.28-4.5-5.34-3.49-9.05 1.01-3.72 4.21-5.69 7.15-4.42 24.68 10.8 41.98 16.98 56.84 18.42 14.43 1.4 26.75-1.75 41.78-9.55l.32-.15c25.73-13.22 43.03-8.03 61.96-2.35 18.43 5.53 38.56 11.57 70.67-1.22l.46-.15c25.9-9.46 42.32-4.15 62.6 2.39 8.83 2.86 18.44 5.97 29.76 8.05 3.08.56 5.22 4.17 4.78 8.07-.43 3.9-3.29 6.62-6.37 6.06-12.08-2.22-21.92-5.41-30.95-8.33-18.68-6.03-33.8-10.91-56.73-2.54l-.2.08c-35.07 13.97-56.76 7.46-76.63 1.49-17.13-5.14-32.79-9.84-55.15 1.65l-.24.14c-16.76 8.68-30.57 12.18-46.9 10.6-15.91-1.54-34.01-7.97-59.66-19.19z"/><path fill="#202EE7" d="M111.8 112.71c0 5.29-4.32 9.58-9.64 9.58-4.91 0-8.95-3.64-9.56-8.34-1.16-13.39 19.2-14.17 19.2-1.24z"/><path fill="#fff" d="M102.91 110.43c0 1.82-1.48 3.29-3.32 3.29-1.68 0-3.08-1.25-3.29-2.87-.39-4.6 6.61-4.87 6.61-.42z"/><path fill="#4192D7" d="M167.72 172.97c-.17 4.85 1.38 11.75 4.09 19.6l69.25 34.78c1.87-8.41 2.46-16.84 1.38-23.84-24.02-13.73-49.06-23.35-74.72-30.54z"/></svg>