<svg width="430" height="412" xmlns="http://www.w3.org/2000/svg">
 <g>
  <title>Layer 1</title>
  <path stroke="#2b00d9" stroke-width="30" id="svg_1" d="m214.97104,295.13288l-102.9178,75.33208l39.34138,-121.85728l-102.89463,-75.33208l127.18758,0.02334l33.80393,-104.78092l5.51428,-17.018l39.27187,121.77558l127.22234,0l-102.94097,75.33208l39.35297,121.8923l-102.94097,-75.3671l0,0z" fill="#fdb803"/>
  <path id="svg_4" d="m162.75824,186.55911l-3.0564,0l-0.94347,-0.05217l-0.13248,0.00729l-0.81211,0.04489l-3.05556,-0.00001l2.47195,0.03227l-0.94514,0.0522l2.4725,-0.03227l2.47306,0.03229l-0.94542,-0.05222l2.47306,-0.03227zm-3.67313,0.04411l-0.32701,-0.00427l-0.32701,0.00427l-1.08596,0.01417l0.41468,-0.02292l0.12524,-0.00691l-0.32757,-0.00428l-1.08541,-0.01417l1.74639,0l0.12524,-0.00691l0.4144,-0.02292l0.4144,0.02291l0.12496,0.00691l1.74806,0l-1.08708,0.01418l-0.32785,0.00427l0.12496,0.00692l0.41552,0.02292l-1.08596,-0.01418z" stroke="null" fill="#fdb803"/>
 </g>

</svg>