<?xml version="1.0" encoding="UTF-8"?>
<!DOCTYPE svg PUBLIC "-//W3C//DTD SVG 1.1//EN" "http://www.w3.org/Graphics/SVG/1.1/DTD/svg11.dtd">
<svg xmlns="http://www.w3.org/2000/svg" version="1.1" width="430px" height="616px" style="shape-rendering:geometricPrecision; text-rendering:geometricPrecision; image-rendering:optimizeQuality; fill-rule:evenodd; clip-rule:evenodd" xmlns:xlink="http://www.w3.org/1999/xlink">
<g><path style="opacity:0.999" fill="#58f8fd" d="M 429.5,41.5 C 429.5,232.833 429.5,424.167 429.5,615.5C 286.167,615.5 142.833,615.5 -0.5,615.5C -0.5,525.833 -0.5,436.167 -0.5,346.5C 2.48772,345.839 5.48772,345.172 8.5,344.5C 16.6335,346.234 23.6335,350.067 29.5,356C 39.6796,366.679 50.013,377.179 60.5,387.5C 66.8904,392.868 74.2237,396.202 82.5,397.5C 87.4844,396.894 92.1511,395.394 96.5,393C 111.199,379.409 123.365,363.909 133,346.5C 143.415,329.269 153.081,311.602 162,293.5C 188.693,236.851 217.693,181.184 249,126.5C 256.667,115.5 264.333,104.5 272,93.5C 278.69,85.4641 286.523,78.9641 295.5,74C 303.5,72 311.5,72 319.5,74C 332.585,79.8065 345.585,85.8065 358.5,92C 376.39,96.9003 391.556,92.4003 404,78.5C 413.548,66.6866 422.048,54.3533 429.5,41.5 Z"/></g>
</svg>
