<svg width="391" height="331" xmlns="http://www.w3.org/2000/svg">
 <g>
  <title>Layer 1</title>
  <path id="svg_4" d="m143.04331,146.91012l-3.0564,0l-0.94347,-0.05217l-0.13248,0.00729l-0.81211,0.04489l-3.05556,-0.00001l2.47195,0.03227l-0.94514,0.0522l2.4725,-0.03227l2.47306,0.03229l-0.94542,-0.05222l2.47306,-0.03227zm-3.67313,0.04411l-0.32701,-0.00427l-0.32701,0.00427l-1.08596,0.01417l0.41468,-0.02292l0.12524,-0.00691l-0.32757,-0.00428l-1.08541,-0.01417l1.74639,0l0.12524,-0.00691l0.4144,-0.02292l0.4144,0.02291l0.12496,0.00691l1.74806,0l-1.08708,0.01418l-0.32785,0.00427l0.12496,0.00692l0.41552,0.02292l-1.08596,-0.01418z" stroke="null" fill="#fdb803"/>
  <path id="svg_6" d="m4.3736,326.87124c0,-2.28113 2.93587,-4.12881 6.5604,-4.12881c3.62453,0 6.5604,1.84768 6.5604,4.12881c0,2.28106 -2.93587,4.12874 -6.5604,4.12874c-3.62453,0 -6.5604,-1.84768 -6.5604,-4.12874zm13.44883,-29.66546c0,-5.70296 7.33967,-10.32223 16.40102,-10.32223c9.06133,0 16.40101,4.61927 16.40101,10.32223c0,5.7027 -7.33967,10.32204 -16.40101,10.32204c-9.06135,0 -16.40102,-4.61927 -16.40102,-10.32204zm31.16193,-44.97701c0,-15.76716 25.54208,-28.53844 57.07553,-28.53844c31.53337,0 57.07546,12.77128 57.07546,28.53844c0,15.76705 -25.54209,28.53822 -57.07546,28.53822c-31.53346,0 -57.07553,-12.77117 -57.07553,-28.53822zm-48.98435,-129.19031c0,-67.97703 87.48896,-123.03846 195.50002,-123.03846c108.01109,0 195.50002,55.06143 195.50002,123.03846c0,67.9771 -87.48892,123.03846 -195.50002,123.03846c-108.01106,0 -195.50002,-55.06136 -195.50002,-123.03846z" stroke-width="30" fill="#fdb803"/>
  <path stroke="null" id="svg_7" d="m126.5743,216.42619c-16.25673,-1.95648 -25.03434,-20.24532 -8.79054,-26.94483c16.93377,-6.6058 27.00498,16.91061 8.50797,19.20917c-10.12841,2.87273 13.15012,7.68348 17.48882,2.85301c13.55692,-4.96793 11.46271,-17.89801 8.20099,-27.00429c-1.13195,-6.9763 -2.54752,-14.44505 -14.1736,-10.48019c-28.04888,1.70856 -50.25517,-19.83481 -48.02466,-39.98855c0.75727,-19.00946 21.32396,-32.02935 36.5531,-45.23004c-4.99976,-17.26981 -6.50939,-37.22117 7.98444,-52.27049c13.3505,-12.23344 20.1269,10.15276 22.38519,17.749c5.01625,17.75619 -4.98573,36.41512 -21.62886,48.93173c1.58917,5.93713 3.15277,11.87822 4.77229,17.81066c17.58758,-2.57081 34.37574,8.6806 35.33501,21.85951c2.71756,11.90075 -7.36454,23.13951 -21.13568,28.25412c-0.22644,10.21932 7.23202,20.81982 4.55209,31.37274c-2.57368,10.91078 -18.73584,16.26112 -32.02655,13.87846l-0.00001,0zm18.36084,-46.55924c4.98285,-7.08146 -4.05534,-19.58782 -4.55157,-28.67775c0.19517,-15.85089 -22.01286,3.07048 -15.40867,10.85448c1.95768,4.60598 18.95001,13.05263 3.34121,7.84325c-16.296,-7.38409 -15.5496,-26.38299 -0.65974,-34.40489c12.49206,-2.09492 4.86239,-14.71554 2.50857,-18.86097c-15.34291,10.58628 -32.73344,23.91653 -30.08739,41.05051c1.99318,16.0596 25.11742,25.80188 44.85759,22.19538l0,-0.00001zm10.32337,-3.06539c14.63351,-7.11236 14.15326,-25.77822 -1.85686,-31.5675c-17.08289,-6.83398 -5.3822,11.0699 -5.06919,17.88475c2.37075,2.60881 1.02782,17.81005 6.92605,13.68275zm-18.035,-85.56035c9.00146,-8.24418 19.29111,-20.14624 12.96943,-31.04614c-13.6137,-6.80357 -21.17895,11.59083 -21.51375,19.64534c-0.12385,5.22272 -1.14046,23.22455 8.54434,11.40081l0,0l-0.00001,0z" stroke-width="30" fill="#ffffff"/>
  <path stroke="null" id="svg_8" d="m215.81588,183.64673c-8.76765,-1.41227 -15.38654,-8.25186 -13.19132,-15.36309c3.10471,-9.97679 14.86734,-16.87818 26.63928,-20.15815c7.84136,-2.06062 16.73958,-1.74913 24.10234,1.31479c0.65745,-38.10714 0.28203,-76.22389 0.38186,-114.33534c2.65766,-0.00051 6.06805,-0.67944 5.34594,2.36606c0.37084,6.84374 4.62124,13.10882 11.15325,17.52352c14.57219,10.74298 30.96442,22.40851 34.31184,38.78175c0.95025,6.90757 -0.0682,13.8691 -2.00748,20.61459c5.74303,8.4817 5.39697,18.75778 3.06504,27.95693c-1.51214,4.85758 -3.97857,9.53694 -7.11385,13.87017c-7.40293,2.72688 0.87746,-4.45705 0.7736,-7.04505c4.00421,-7.77468 4.46356,-16.43501 2.6423,-24.62459c-3.96747,-11.98024 -18.96672,-17.83382 -31.02849,-24.09747c-4.36425,-1.35147 -13.69305,-9.50249 -11.84323,-1.51531c-0.40431,21.65069 -0.33527,43.30451 -0.46192,64.95686c-5.06303,10.03841 -16.67798,17.69959 -30.16879,19.62068c-4.13301,0.56517 -8.46134,0.77185 -12.60038,0.13366l0.00001,-0.00001zm84.11692,-81.86217c0.12028,-12.32149 -11.47807,-22.29068 -22.84291,-29.59758c-5.68686,-3.39265 -11.71076,-6.98692 -18.10542,-9.18271c0.39332,7.08539 4.49063,13.98903 9.39501,19.87294c9.24243,9.79918 23.19576,16.35378 30.93812,27.14308c0.9284,-2.6788 0.64836,-5.49032 0.61521,-8.23573z" stroke-width="30" fill="#ffffff"/>
 </g>

</svg>